<mxfile host="app.diagrams.net" modified="2021-09-10T08:36:48.922Z" agent="5.0 (X11; Linux x86_64) AppleWebKit/537.36 (KHTML, like Gecko) Chrome/92.0.4515.131 Safari/537.36" etag="m4UxBcadHjM5GVQ-5_C2" version="15.1.4" type="github">
  <diagram id="kgpKYQtTHZ0yAKxKKP6v" name="Page-1">
    <mxGraphModel dx="2230" dy="833" grid="1" gridSize="10" guides="1" tooltips="1" connect="1" arrows="1" fold="1" page="1" pageScale="1" pageWidth="850" pageHeight="1100" math="0" shadow="0">
      <root>
        <mxCell id="0" />
        <mxCell id="1" parent="0" />
        <mxCell id="B8iboHTr7hMl_kk2bmoX-1" value="Add Order" style="swimlane;" vertex="1" parent="1">
          <mxGeometry x="20" y="10" width="820" height="590" as="geometry" />
        </mxCell>
        <mxCell id="B8iboHTr7hMl_kk2bmoX-2" value="Actor" style="shape=umlActor;verticalLabelPosition=bottom;verticalAlign=top;html=1;outlineConnect=0;" vertex="1" parent="B8iboHTr7hMl_kk2bmoX-1">
          <mxGeometry x="10" y="30" width="30" height="40" as="geometry" />
        </mxCell>
        <mxCell id="B8iboHTr7hMl_kk2bmoX-3" value="" style="html=1;points=[];perimeter=orthogonalPerimeter;" vertex="1" parent="B8iboHTr7hMl_kk2bmoX-1">
          <mxGeometry x="20" y="90" width="10" height="360" as="geometry" />
        </mxCell>
        <mxCell id="B8iboHTr7hMl_kk2bmoX-6" value="LoginView" style="shape=umlLifeline;perimeter=lifelinePerimeter;whiteSpace=wrap;html=1;container=1;collapsible=0;recursiveResize=0;outlineConnect=0;fillColor=#ffe6cc;strokeColor=#d79b00;" vertex="1" parent="B8iboHTr7hMl_kk2bmoX-1">
          <mxGeometry x="70" y="45" width="70" height="425" as="geometry" />
        </mxCell>
        <mxCell id="B8iboHTr7hMl_kk2bmoX-9" value="UserLogin" style="endArrow=open;endSize=12;dashed=1;html=1;" edge="1" parent="B8iboHTr7hMl_kk2bmoX-1">
          <mxGeometry y="20" width="160" relative="1" as="geometry">
            <mxPoint x="30" y="130" as="sourcePoint" />
            <mxPoint x="80" y="130" as="targetPoint" />
            <mxPoint as="offset" />
          </mxGeometry>
        </mxCell>
        <mxCell id="3nuBFxr9cyL0pnOWT2aG-5" value="Welcome View" style="shape=umlLifeline;perimeter=lifelinePerimeter;container=1;collapsible=0;recursiveResize=0;rounded=0;shadow=0;strokeWidth=1;fillColor=#ffe6cc;strokeColor=#d79b00;" parent="B8iboHTr7hMl_kk2bmoX-1" vertex="1">
          <mxGeometry x="160" y="45" width="85" height="425" as="geometry" />
        </mxCell>
        <mxCell id="B8iboHTr7hMl_kk2bmoX-14" value="Add Order View" style="shape=umlLifeline;perimeter=lifelinePerimeter;whiteSpace=wrap;html=1;container=1;collapsible=0;recursiveResize=0;outlineConnect=0;fillColor=#ffe6cc;strokeColor=#d79b00;" vertex="1" parent="B8iboHTr7hMl_kk2bmoX-1">
          <mxGeometry x="280" y="45" width="90" height="425" as="geometry" />
        </mxCell>
        <mxCell id="B8iboHTr7hMl_kk2bmoX-29" value="dispatch" style="html=1;verticalAlign=bottom;endArrow=block;" edge="1" parent="B8iboHTr7hMl_kk2bmoX-14">
          <mxGeometry width="80" relative="1" as="geometry">
            <mxPoint x="50" y="185" as="sourcePoint" />
            <mxPoint x="166" y="185" as="targetPoint" />
          </mxGeometry>
        </mxCell>
        <mxCell id="B8iboHTr7hMl_kk2bmoX-13" value="LogIn" style="html=1;verticalAlign=bottom;endArrow=block;exitX=1;exitY=0.367;exitDx=0;exitDy=0;exitPerimeter=0;entryX=-0.35;entryY=0.168;entryDx=0;entryDy=0;entryPerimeter=0;" edge="1" parent="B8iboHTr7hMl_kk2bmoX-1" source="B8iboHTr7hMl_kk2bmoX-7" target="3nuBFxr9cyL0pnOWT2aG-6">
          <mxGeometry width="80" relative="1" as="geometry">
            <mxPoint x="115" y="195" as="sourcePoint" />
            <mxPoint x="203" y="200" as="targetPoint" />
          </mxGeometry>
        </mxCell>
        <mxCell id="B8iboHTr7hMl_kk2bmoX-19" value="addOder" style="html=1;verticalAlign=bottom;endArrow=block;exitX=0.95;exitY=0.264;exitDx=0;exitDy=0;exitPerimeter=0;entryX=-0.1;entryY=0.454;entryDx=0;entryDy=0;entryPerimeter=0;" edge="1" parent="B8iboHTr7hMl_kk2bmoX-1" source="3nuBFxr9cyL0pnOWT2aG-6" target="B8iboHTr7hMl_kk2bmoX-15">
          <mxGeometry width="80" relative="1" as="geometry">
            <mxPoint x="235" y="228" as="sourcePoint" />
            <mxPoint x="295" y="216" as="targetPoint" />
          </mxGeometry>
        </mxCell>
        <mxCell id="B8iboHTr7hMl_kk2bmoX-20" value="&amp;lt;&amp;lt;service&amp;gt;&amp;gt;&lt;br&gt;Add order" style="shape=umlLifeline;perimeter=lifelinePerimeter;whiteSpace=wrap;html=1;container=1;collapsible=0;recursiveResize=0;outlineConnect=0;fillColor=#ffe6cc;strokeColor=#d79b00;" vertex="1" parent="B8iboHTr7hMl_kk2bmoX-1">
          <mxGeometry x="405" y="45" width="100" height="420" as="geometry" />
        </mxCell>
        <mxCell id="B8iboHTr7hMl_kk2bmoX-21" value="" style="html=1;points=[];perimeter=orthogonalPerimeter;fillColor=#dae8fc;strokeColor=#6c8ebf;" vertex="1" parent="B8iboHTr7hMl_kk2bmoX-20">
          <mxGeometry x="45" y="100" width="10" height="310" as="geometry" />
        </mxCell>
        <mxCell id="B8iboHTr7hMl_kk2bmoX-31" value="confirm Order" style="html=1;verticalAlign=bottom;endArrow=block;" edge="1" parent="B8iboHTr7hMl_kk2bmoX-20" target="B8iboHTr7hMl_kk2bmoX-23">
          <mxGeometry width="80" relative="1" as="geometry">
            <mxPoint x="55" y="225" as="sourcePoint" />
            <mxPoint x="135" y="225" as="targetPoint" />
          </mxGeometry>
        </mxCell>
        <mxCell id="B8iboHTr7hMl_kk2bmoX-23" value="Confirm View" style="shape=umlLifeline;perimeter=lifelinePerimeter;whiteSpace=wrap;html=1;container=1;collapsible=0;recursiveResize=0;outlineConnect=0;fillColor=#ffe6cc;strokeColor=#d79b00;" vertex="1" parent="B8iboHTr7hMl_kk2bmoX-1">
          <mxGeometry x="540" y="50" width="75" height="420" as="geometry" />
        </mxCell>
        <mxCell id="B8iboHTr7hMl_kk2bmoX-26" value="" style="html=1;points=[];perimeter=orthogonalPerimeter;fillColor=#dae8fc;strokeColor=#6c8ebf;" vertex="1" parent="B8iboHTr7hMl_kk2bmoX-23">
          <mxGeometry x="33" y="155" width="10" height="135" as="geometry" />
        </mxCell>
        <mxCell id="B8iboHTr7hMl_kk2bmoX-32" value="success" style="html=1;verticalAlign=bottom;endArrow=block;" edge="1" parent="B8iboHTr7hMl_kk2bmoX-23">
          <mxGeometry width="80" relative="1" as="geometry">
            <mxPoint x="40" y="240" as="sourcePoint" />
            <mxPoint x="140" y="240" as="targetPoint" />
          </mxGeometry>
        </mxCell>
        <mxCell id="B8iboHTr7hMl_kk2bmoX-34" value="Thank you" style="html=1;verticalAlign=bottom;endArrow=open;dashed=1;endSize=8;" edge="1" parent="B8iboHTr7hMl_kk2bmoX-23">
          <mxGeometry x="0.1064" y="-10" relative="1" as="geometry">
            <mxPoint x="140" y="300" as="sourcePoint" />
            <mxPoint x="-330" y="300" as="targetPoint" />
            <Array as="points">
              <mxPoint x="-100" y="300" />
            </Array>
            <mxPoint as="offset" />
          </mxGeometry>
        </mxCell>
        <mxCell id="B8iboHTr7hMl_kk2bmoX-24" value="Thank you View" style="shape=umlLifeline;perimeter=lifelinePerimeter;whiteSpace=wrap;html=1;container=1;collapsible=0;recursiveResize=0;outlineConnect=0;fillColor=#ffe6cc;strokeColor=#d79b00;" vertex="1" parent="B8iboHTr7hMl_kk2bmoX-1">
          <mxGeometry x="650" y="50" width="75" height="420" as="geometry" />
        </mxCell>
        <mxCell id="B8iboHTr7hMl_kk2bmoX-27" value="" style="html=1;points=[];perimeter=orthogonalPerimeter;fillColor=#dae8fc;strokeColor=#6c8ebf;" vertex="1" parent="B8iboHTr7hMl_kk2bmoX-24">
          <mxGeometry x="33" y="190" width="10" height="120" as="geometry" />
        </mxCell>
        <mxCell id="B8iboHTr7hMl_kk2bmoX-7" value="" style="html=1;points=[];perimeter=orthogonalPerimeter;fillColor=#dae8fc;strokeColor=#6c8ebf;" vertex="1" parent="B8iboHTr7hMl_kk2bmoX-1">
          <mxGeometry x="100" y="120" width="10" height="210" as="geometry" />
        </mxCell>
        <mxCell id="B8iboHTr7hMl_kk2bmoX-11" value="" style="html=1;points=[];perimeter=orthogonalPerimeter;fillColor=#dae8fc;strokeColor=#6c8ebf;" vertex="1" parent="B8iboHTr7hMl_kk2bmoX-1">
          <mxGeometry x="120" y="140" width="10" height="20" as="geometry" />
        </mxCell>
        <mxCell id="3nuBFxr9cyL0pnOWT2aG-6" value="" style="points=[];perimeter=orthogonalPerimeter;rounded=0;shadow=0;strokeWidth=1;fillColor=#dae8fc;strokeColor=#6c8ebf;" parent="B8iboHTr7hMl_kk2bmoX-1" vertex="1">
          <mxGeometry x="197.5" y="160" width="10" height="220" as="geometry" />
        </mxCell>
        <mxCell id="B8iboHTr7hMl_kk2bmoX-15" value="" style="html=1;points=[];perimeter=orthogonalPerimeter;fillColor=#dae8fc;strokeColor=#6c8ebf;" vertex="1" parent="B8iboHTr7hMl_kk2bmoX-1">
          <mxGeometry x="320" y="160" width="10" height="130" as="geometry" />
        </mxCell>
        <mxCell id="B8iboHTr7hMl_kk2bmoX-25" value="Error View" style="shape=umlLifeline;perimeter=lifelinePerimeter;whiteSpace=wrap;html=1;container=1;collapsible=0;recursiveResize=0;outlineConnect=0;fillColor=#ffe6cc;strokeColor=#d79b00;" vertex="1" parent="B8iboHTr7hMl_kk2bmoX-1">
          <mxGeometry x="740" y="50" width="75" height="420" as="geometry" />
        </mxCell>
        <mxCell id="B8iboHTr7hMl_kk2bmoX-28" value="" style="html=1;points=[];perimeter=orthogonalPerimeter;fillColor=#dae8fc;strokeColor=#6c8ebf;" vertex="1" parent="B8iboHTr7hMl_kk2bmoX-25">
          <mxGeometry x="33" y="270" width="10" height="140" as="geometry" />
        </mxCell>
        <mxCell id="B8iboHTr7hMl_kk2bmoX-30" value="error" style="html=1;verticalAlign=bottom;endArrow=block;exitX=1;exitY=0.977;exitDx=0;exitDy=0;exitPerimeter=0;entryX=0;entryY=0.886;entryDx=0;entryDy=0;entryPerimeter=0;" edge="1" parent="B8iboHTr7hMl_kk2bmoX-1" source="B8iboHTr7hMl_kk2bmoX-21" target="B8iboHTr7hMl_kk2bmoX-28">
          <mxGeometry width="80" relative="1" as="geometry">
            <mxPoint x="460" y="400" as="sourcePoint" />
            <mxPoint x="540" y="400" as="targetPoint" />
            <Array as="points" />
          </mxGeometry>
        </mxCell>
        <mxCell id="B8iboHTr7hMl_kk2bmoX-12" value="validate" style="edgeStyle=orthogonalEdgeStyle;html=1;align=left;spacingLeft=2;endArrow=block;rounded=0;" edge="1" parent="1">
          <mxGeometry relative="1" as="geometry">
            <mxPoint x="150" y="140" as="sourcePoint" />
            <Array as="points">
              <mxPoint x="180" y="140" />
              <mxPoint x="180" y="160" />
            </Array>
            <mxPoint x="155" y="160" as="targetPoint" />
          </mxGeometry>
        </mxCell>
        <mxCell id="B8iboHTr7hMl_kk2bmoX-33" value="return" style="html=1;verticalAlign=bottom;endArrow=open;dashed=1;endSize=8;" edge="1" parent="1">
          <mxGeometry relative="1" as="geometry">
            <mxPoint x="-190" y="650" as="sourcePoint" />
            <mxPoint x="-270" y="650" as="targetPoint" />
          </mxGeometry>
        </mxCell>
      </root>
    </mxGraphModel>
  </diagram>
</mxfile>
